<svg width="33" height="33" viewBox="0 0 33 33" fill="none" xmlns="http://www.w3.org/2000/svg">
<path d="M16.2845 32.0638C11.9316 32.0638 11.4185 32.0408 9.7198 31.9666C8.39514 31.9231 7.08762 31.6542 5.85354 31.1715C3.71836 30.3418 2.02999 28.6552 1.19987 26.5228C0.735042 25.286 0.48433 23.9793 0.458465 22.6585C0.359375 20.9658 0.359375 20.411 0.359375 16.098C0.359375 11.7391 0.382378 11.2302 0.458465 9.54279C0.484896 8.22384 0.735599 6.91895 1.19987 5.68387C2.02909 3.54862 3.7202 1.86059 5.85885 1.03338C7.09507 0.56727 8.40217 0.316266 9.72334 0.291275C11.4132 0.195862 11.9688 0.195862 16.2845 0.195862C20.6727 0.195862 21.177 0.218832 22.8492 0.291275C24.1738 0.316483 25.4843 0.567459 26.7243 1.03338C28.8623 1.86153 30.5531 3.54923 31.3833 5.68387C31.8559 6.93695 32.108 8.26223 32.1282 9.6011C32.2273 11.2938 32.2273 11.8468 32.2273 16.1581C32.2273 20.4693 32.2025 21.0348 32.1282 22.708C32.1019 24.03 31.8506 25.3379 31.385 26.5758C30.5528 28.7097 28.8619 30.3968 26.7243 31.2263C25.4861 31.6895 24.1782 31.9399 22.8563 31.9666C21.1664 32.0638 20.6126 32.0638 16.2845 32.0638ZM16.2243 2.99287C11.8962 2.99287 11.4468 3.01408 9.75696 3.09005C8.74834 3.1034 7.74948 3.28926 6.80374 3.63956C5.4072 4.17318 4.30213 5.27217 3.76204 6.66451C3.40853 7.61916 3.22237 8.6275 3.21174 9.64528C3.11796 11.3574 3.11796 11.8062 3.11796 16.098C3.11796 20.3386 3.13388 20.8528 3.21174 22.5543C3.22758 23.5618 3.41363 24.5594 3.76204 25.505C4.30292 26.8964 5.4078 27.9946 6.80374 28.5282C7.74883 28.8808 8.74811 29.0668 9.75696 29.0777C11.4698 29.1767 11.921 29.1767 16.2243 29.1767C20.5648 29.1767 21.0142 29.1555 22.6899 29.0777C23.6992 29.0654 24.6989 28.8796 25.6449 28.5282C27.033 27.99 28.1309 26.8943 28.6707 25.5086C29.0235 24.5531 29.2096 23.5443 29.221 22.526H29.2404C29.3165 20.8369 29.3165 20.3863 29.3165 16.0697C29.3165 11.7532 29.2971 11.2991 29.221 9.6117C29.2051 8.60536 29.0191 7.60894 28.6707 6.66451C28.1321 5.27673 27.0341 4.17898 25.6449 3.63956C24.6991 3.28749 23.6993 3.10158 22.6899 3.09005C20.9789 2.99287 20.5312 2.99287 16.2243 2.99287ZM16.2845 24.2594C12.9756 24.2615 9.99127 22.2729 8.72335 19.2209C7.45544 16.169 8.15367 12.6549 10.4924 10.3175C12.8311 7.98013 16.3497 7.27987 19.4072 8.54331C22.4646 9.80676 24.4587 12.785 24.4594 16.0892C24.4545 20.5967 20.7985 24.2506 16.2845 24.2594ZM16.2845 10.7849C13.3528 10.7849 10.9761 13.1581 10.9761 16.0856C10.9761 19.0132 13.3528 21.3864 16.2845 21.3864C19.2162 21.3864 21.5929 19.0132 21.5929 16.0856C21.586 13.161 19.2134 10.7917 16.2845 10.7849ZM24.7779 9.52513C23.7258 9.52122 22.8755 8.66745 22.8775 7.61688C22.8794 6.56632 23.7329 5.71569 24.785 5.71569C25.837 5.71569 26.6905 6.5663 26.6924 7.61687C26.6929 8.12373 26.4912 8.60991 26.132 8.96798C25.7727 9.32605 25.2855 9.52654 24.7779 9.52513Z" fill="white"/>
</svg>
