<svg width="28" height="31" viewBox="0 0 28 31" fill="none" xmlns="http://www.w3.org/2000/svg">
<path d="M8.82474 24.3922C7.32186 24.3922 6.11819 25.7031 6.11819 27.3216C6.11819 28.9401 7.32186 30.251 8.82474 30.251C10.3276 30.251 11.5449 28.9401 11.5449 27.3216C11.5449 25.7031 10.3276 24.3922 8.82474 24.3922ZM0.664307 0.957153V3.88654H3.38445L8.27391 14.9962L6.43781 18.5847C6.227 19.0095 6.10459 19.4855 6.10459 19.9982C6.10459 21.6166 7.32186 22.9275 8.82474 22.9275H25.1456V19.9982H9.40277C9.21236 19.9982 9.06275 19.837 9.06275 19.632C9.06275 19.5661 9.07635 19.5075 9.10355 19.4562L10.3208 17.0688H20.4534C21.4734 17.0688 22.3643 16.4609 22.8335 15.5601L27.6957 6.05428C27.8045 5.84923 27.8657 5.60755 27.8657 5.35123C27.8657 4.53833 27.2537 3.88654 26.5057 3.88654H6.39701L5.10494 0.957153H0.664307ZM22.4255 24.3922C20.9226 24.3922 19.7189 25.7031 19.7189 27.3216C19.7189 28.9401 20.9226 30.251 22.4255 30.251C23.9283 30.251 25.1456 28.9401 25.1456 27.3216C25.1456 25.7031 23.9283 24.3922 22.4255 24.3922Z" fill="white"/>
</svg>