<svg width="33" height="33" viewBox="0 0 33 33" fill="none" xmlns="http://www.w3.org/2000/svg">
<path d="M0.226562 16.2257C0.228416 24.1125 5.92818 30.8278 13.6696 32.0638V20.859H9.62727V16.2257H13.6744V12.6987C13.4934 11.0274 14.0608 9.36174 15.2225 8.15346C16.3842 6.94519 18.02 6.31953 19.686 6.44616C20.8819 6.46559 22.0747 6.57276 23.2551 6.7668V10.7091H21.2411C20.5478 10.6177 19.8507 10.8481 19.3463 11.3354C18.8419 11.8227 18.5847 12.5141 18.6472 13.2149V16.2257H23.0623L22.3565 20.8606H18.6472V32.0638C27.0193 30.7325 32.8902 23.039 32.0065 14.5569C31.1229 6.07481 23.7941 -0.226494 15.3296 0.217994C6.865 0.662481 0.227908 7.69715 0.226562 16.2257Z" fill="white"/>
</svg>