<svg width="47" height="43" viewBox="0 0 47 43" fill="none" xmlns="http://www.w3.org/2000/svg">
<path d="M29.5466 25.993H28.1509L27.6562 25.5394C29.3876 23.6238 30.4299 21.137 30.4299 18.4317C30.4299 12.3993 25.2889 7.50964 18.9466 7.50964C12.6043 7.50964 7.46329 12.3993 7.46329 18.4317C7.46329 24.464 12.6043 29.3537 18.9466 29.3537C21.7909 29.3537 24.4056 28.3623 26.4196 26.7156L26.8966 27.1861V28.5135L35.7299 36.8983L38.3622 34.3946L29.5466 25.993V25.993ZM18.9466 25.993C14.5476 25.993 10.9966 22.6156 10.9966 18.4317C10.9966 14.2477 14.5476 10.8703 18.9466 10.8703C23.3456 10.8703 26.8966 14.2477 26.8966 18.4317C26.8966 22.6156 23.3456 25.993 18.9466 25.993Z" fill="black" fill-opacity="0.7"/>
</svg>