<svg width="29" height="28" viewBox="0 0 29 28" fill="none" xmlns="http://www.w3.org/2000/svg">
<path d="M6.25656 12.305C8.43778 16.5917 11.9444 20.0984 16.2387 22.2796L19.5711 18.9396C19.9877 18.523 20.586 18.4018 21.1086 18.5685C22.8051 19.1289 24.6304 19.4319 26.5162 19.4319C27.3569 19.4319 28.0309 20.1059 28.0309 20.9466V26.2482C28.0309 27.0889 27.3569 27.7629 26.5162 27.7629C12.2928 27.7629 0.765625 16.2358 0.765625 2.01236C0.765625 1.17168 1.44726 0.49762 2.28036 0.49762H7.58195C8.42264 0.49762 9.09669 1.17168 9.09669 2.01236C9.09669 3.89821 9.39964 5.72347 9.9601 7.41998C10.1267 7.94257 10.0055 8.54089 9.58899 8.95744L6.25656 12.305Z" fill="white"/>
</svg>