<?xml version="1.0" standalone="no"?>
<!DOCTYPE svg PUBLIC "-//W3C//DTD SVG 20010904//EN"
 "http://www.w3.org/TR/2001/REC-SVG-20010904/DTD/svg10.dtd">
<svg version="1.0" xmlns="http://www.w3.org/2000/svg"
 width="92.000000pt" height="92.000000pt" viewBox="0 0 92.000000 92.000000"
 preserveAspectRatio="xMidYMid meet">
<metadata>
Created by potrace 1.14, written by Peter Selinger 2001-2017
</metadata>
<g transform="translate(0.000000,92.000000) scale(0.100000,-0.100000)"
fill="#000000" stroke="none">
<path d="M765 870 c-16 -10 -50 -21 -75 -24 -47 -6 -52 -7 -110 -20 -56 -13
-108 -47 -119 -77 -8 -23 -6 -31 14 -49 19 -18 35 -22 91 -22 99 0 128 -6 113
-24 -7 -9 -8 -14 -1 -14 17 0 26 41 11 51 -8 5 -41 9 -74 9 -72 0 -102 7 -109
26 -16 41 27 69 150 99 52 13 109 33 127 44 18 11 28 20 22 20 -5 0 -23 -9
-40 -19z"/>
<path d="M847 717 c-3 -8 -27 -23 -54 -32 -26 -10 -54 -24 -62 -31 -9 -8 8 -5
40 7 53 20 98 53 87 64 -3 3 -8 -1 -11 -8z"/>
<path d="M231 625 c-7 -16 -19 -35 -28 -42 -39 -30 63 -107 109 -82 18 10 19
13 7 23 -22 16 -55 67 -66 101 l-11 30 -11 -30z"/>
<path d="M286 628 c3 -12 15 -35 26 -52 11 -17 17 -22 13 -11 -3 11 -9 32 -12
47 -3 15 -12 29 -20 32 -11 5 -13 1 -7 -16z"/>
<path d="M554 607 c-10 -6 -38 -14 -63 -19 -24 -4 -50 -13 -57 -19 -16 -13
-19 -53 -4 -44 5 3 3 -9 -4 -27 -16 -40 -11 -65 10 -47 12 10 13 8 5 -13 -6
-17 -6 -32 2 -48 18 -35 34 -36 29 -2 -5 34 11 49 82 78 43 17 54 27 73 67 13
26 28 47 35 47 9 0 10 -2 2 -8 -6 -4 -15 -20 -18 -37 -10 -44 -35 -69 -89 -90
-26 -10 -52 -24 -58 -31 -18 -22 -6 -47 28 -58 71 -24 69 -53 -7 -91 -29 -15
-59 -39 -70 -58 -11 -18 -20 -27 -20 -22 0 25 42 75 81 96 67 38 63 50 -21 64
-42 7 -66 27 -74 63 -6 30 -23 59 -29 52 -19 -21 -16 -52 7 -75 14 -14 21 -25
16 -25 -6 0 -10 -5 -10 -11 0 -7 9 -9 21 -6 16 4 18 3 9 -9 -7 -7 -28 -16 -47
-20 -23 -4 -37 -13 -41 -26 -3 -12 -33 -33 -78 -54 -81 -40 -161 -112 -193
-177 -11 -22 -19 -43 -16 -45 2 -2 17 -1 34 3 21 4 32 15 40 37 21 61 100 138
164 161 27 10 20 -1 -11 -17 -15 -8 -40 -27 -56 -42 -31 -32 -71 -103 -62
-112 12 -12 56 19 72 50 24 47 63 98 76 98 6 0 4 -8 -5 -18 -10 -10 -17 -23
-17 -28 0 -5 -9 -26 -20 -47 -14 -25 -16 -37 -8 -37 25 0 37 16 47 59 5 24 15
48 22 55 9 8 10 8 5 -2 -4 -7 -9 -32 -11 -56 -2 -35 0 -43 11 -39 9 3 14 20
14 45 0 23 4 37 10 33 6 -3 10 -20 10 -36 0 -20 4 -29 13 -26 13 4 13 19 2 77
-8 41 8 90 30 90 8 0 15 -7 15 -15 0 -9 -6 -12 -15 -9 -16 6 -19 -7 -15 -56 3
-43 16 -44 77 -6 78 48 91 61 142 131 24 33 68 84 98 112 58 56 66 85 25 91
-13 2 -39 -6 -58 -17 -32 -19 -31 -17 15 29 28 28 53 50 57 50 4 0 13 -8 20
-17 12 -17 13 -17 14 3 0 13 -11 29 -27 39 -26 17 -27 17 -45 -5 -10 -12 -18
-28 -18 -36 0 -7 -4 -15 -9 -18 -8 -5 -6 16 5 52 2 7 2 15 1 19 -4 10 -124 11
-143 0z m26 -27 c0 -5 -5 -10 -11 -10 -5 0 -7 5 -4 10 3 6 8 10 11 10 2 0 4
-4 4 -10z m30 6 c0 -3 -4 -8 -10 -11 -5 -3 -10 -1 -10 4 0 6 5 11 10 11 6 0
10 -2 10 -4z m-4 -41 c-27 -25 -66 -34 -66 -14 0 6 -9 8 -22 4 -23 -7 -23 -7
-2 8 11 9 40 17 65 20 24 2 46 4 48 5 2 1 -8 -9 -23 -23z m153 -59 c-2 -2 -20
-6 -39 -10 -25 -4 -31 -3 -20 4 14 9 69 15 59 6z m-139 -41 c0 -3 -15 -14 -32
-25 -34 -21 -32 -23 14 -20 35 2 46 -19 21 -40 -12 -9 -23 -25 -26 -36 -4 -17
-5 -17 -6 2 0 12 6 27 14 34 23 19 18 25 -22 25 -68 0 -51 31 35 64 1 1 2 -1
2 -4z"/>
<path d="M550 540 c0 -5 7 -10 15 -10 8 0 15 5 15 10 0 6 -7 10 -15 10 -8 0
-15 -4 -15 -10z"/>
<path d="M173 527 c0 -7 -4 -24 -7 -38 -6 -21 -3 -27 19 -37 29 -13 55 -15 79
-6 24 9 19 21 -11 28 -14 4 -38 20 -53 36 -15 16 -27 23 -27 17z"/>
<path d="M380 518 c-11 -12 -20 -33 -20 -47 l0 -24 24 22 c14 13 23 33 22 47
-1 29 0 29 -26 2z"/>
<path d="M336 492 c-4 -7 -4 -12 1 -12 4 0 -3 -6 -17 -13 -30 -15 -37 -48 -15
-67 13 -11 15 -9 15 9 0 12 7 33 16 46 9 13 14 30 12 37 -3 9 -6 9 -12 0z"/>
<path d="M150 419 c0 -24 5 -29 36 -35 26 -5 39 -3 45 7 11 18 11 32 0 25 -4
-3 -24 3 -45 13 l-36 19 0 -29z"/>
<path d="M337 433 c-12 -11 -8 -31 9 -47 25 -25 32 -19 20 19 -11 35 -17 41
-29 28z"/>
<path d="M256 396 c-9 -14 -16 -33 -16 -41 0 -20 25 -14 26 6 0 8 4 22 8 32
13 28 0 30 -18 3z"/>
<path d="M710 387 c0 -7 11 -23 25 -35 15 -13 23 -28 19 -35 -5 -9 -4 -9 6 0
11 10 9 19 -11 48 -25 36 -39 44 -39 22z"/>
<path d="M280 360 c0 -19 7 -33 19 -40 18 -9 20 -7 19 23 -1 50 -38 67 -38 17z"/>
<path d="M150 356 c0 -22 5 -26 29 -26 17 0 33 5 36 11 9 13 4 18 -21 22 -10
1 -25 6 -31 10 -9 6 -13 1 -13 -17z"/>
<path d="M330 345 c0 -21 4 -26 16 -21 9 3 22 6 30 6 8 0 14 7 14 15 0 8 -6
15 -14 15 -8 0 -21 3 -30 6 -12 5 -16 0 -16 -21z"/>
<path d="M230 311 c0 -11 5 -23 10 -26 16 -10 12 -25 -5 -19 -10 4 -15 0 -15
-11 0 -10 5 -14 13 -11 6 3 19 9 28 12 11 4 14 14 11 32 -7 41 -42 59 -42 23z"/>
<path d="M150 295 c0 -9 9 -15 25 -15 16 0 25 6 25 15 0 9 -9 15 -25 15 -16 0
-25 -6 -25 -15z"/>
<path d="M282 292 c4 -19 29 -23 35 -6 2 6 -6 14 -17 17 -16 4 -20 1 -18 -11z"/>
<path d="M157 253 c7 -18 33 -17 33 1 0 8 -8 14 -19 13 -11 0 -17 -6 -14 -14z"/>
<path d="M595 239 c-24 -26 -26 -32 -16 -62 15 -45 57 -85 73 -69 9 9 7 13 -6
18 -9 3 -22 16 -28 27 -10 20 -10 20 17 -1 27 -22 85 -29 119 -16 32 12 15 22
-32 18 -29 -2 -55 1 -65 9 -14 10 -2 12 70 12 52 0 88 4 88 10 0 6 -29 9 -72
8 -40 -1 -73 1 -73 5 0 8 26 11 122 13 75 2 99 21 50 40 -20 8 -44 7 -93 -5
-84 -20 -85 -20 -108 3 -18 18 -19 18 -46 -10z"/>
<path d="M170 220 c0 -5 5 -10 10 -10 6 0 10 5 10 10 0 6 -4 10 -10 10 -5 0
-10 -4 -10 -10z"/>
</g>
</svg>
